<svg id="visual" viewBox="0 0 1900 800" width="1900" height="800" xmlns="http://www.w3.org/2000/svg" xmlns:xlink="http://www.w3.org/1999/xlink" version="1.1"><rect width="1900" height="800" fill="#f3f4f6"></rect><g><g transform="translate(1210 342)"><path d="M0 -81.5L70.6 -40.7L70.6 40.7L0 81.5L-70.6 40.7L-70.6 -40.7Z" fill="none" stroke="#ffffff" stroke-width="2"></path></g><g transform="translate(899 673)"><path d="M0 -49L42.4 -24.5L42.4 24.5L0 49L-42.4 24.5L-42.4 -24.5Z" fill="none" stroke="#ffffff" stroke-width="2"></path></g><g transform="translate(1183 103)"><path d="M0 -65L56.3 -32.5L56.3 32.5L0 65L-56.3 32.5L-56.3 -32.5Z" fill="none" stroke="#ffffff" stroke-width="2"></path></g><g transform="translate(1657 83)"><path d="M0 -57L49.4 -28.5L49.4 28.5L0 57L-49.4 28.5L-49.4 -28.5Z" fill="none" stroke="#ffffff" stroke-width="2"></path></g><g transform="translate(1737 436)"><path d="M0 -75L65 -37.5L65 37.5L0 75L-65 37.5L-65 -37.5Z" fill="none" stroke="#ffffff" stroke-width="2"></path></g><g transform="translate(587 584)"><path d="M0 -67L58 -33.5L58 33.5L0 67L-58 33.5L-58 -33.5Z" fill="none" stroke="#ffffff" stroke-width="2"></path></g><g transform="translate(940 261)"><path d="M0 -73L63.2 -36.5L63.2 36.5L0 73L-63.2 36.5L-63.2 -36.5Z" fill="none" stroke="#ffffff" stroke-width="2"></path></g><g transform="translate(382 230)"><path d="M0 -67L58 -33.5L58 33.5L0 67L-58 33.5L-58 -33.5Z" fill="none" stroke="#ffffff" stroke-width="2"></path></g><g transform="translate(674 114)"><path d="M0 -77L66.7 -38.5L66.7 38.5L0 77L-66.7 38.5L-66.7 -38.5Z" fill="none" stroke="#ffffff" stroke-width="2"></path></g><g transform="translate(1409 620)"><path d="M0 -74L64.1 -37L64.1 37L0 74L-64.1 37L-64.1 -37Z" fill="none" stroke="#ffffff" stroke-width="2"></path></g><g transform="translate(598 406)"><path d="M0 -65L56.3 -32.5L56.3 32.5L0 65L-56.3 32.5L-56.3 -32.5Z" fill="none" stroke="#ffffff" stroke-width="2"></path></g><g transform="translate(1632 683)"><path d="M0 -53L45.9 -26.5L45.9 26.5L0 53L-45.9 26.5L-45.9 -26.5Z" stroke="#ffffff" fill="none" stroke-width="2"></path></g><g transform="translate(1382 344)"><path d="M0 -80L69.3 -40L69.3 40L0 80L-69.3 40L-69.3 -40Z" stroke="#ffffff" fill="none" stroke-width="2"></path></g><g transform="translate(1143 534)"><path d="M0 -47L40.7 -23.5L40.7 23.5L0 47L-40.7 23.5L-40.7 -23.5Z" stroke="#ffffff" fill="none" stroke-width="2"></path></g><g transform="translate(430 460)"><path d="M0 -57L49.4 -28.5L49.4 28.5L0 57L-49.4 28.5L-49.4 -28.5Z" stroke="#ffffff" fill="none" stroke-width="2"></path></g><g transform="translate(173 159)"><path d="M0 -67L58 -33.5L58 33.5L0 67L-58 33.5L-58 -33.5Z" stroke="#ffffff" fill="none" stroke-width="2"></path></g><g transform="translate(1493 133)"><path d="M0 -63L54.6 -31.5L54.6 31.5L0 63L-54.6 31.5L-54.6 -31.5Z" stroke="#ffffff" fill="none" stroke-width="2"></path></g><g transform="translate(321 704)"><path d="M0 -40L34.6 -20L34.6 20L0 40L-34.6 20L-34.6 -20Z" stroke="#ffffff" fill="none" stroke-width="2"></path></g><g transform="translate(283 390)"><path d="M0 -43L37.2 -21.5L37.2 21.5L0 43L-37.2 21.5L-37.2 -21.5Z" stroke="#ffffff" fill="none" stroke-width="2"></path></g><g transform="translate(103 607)"><path d="M0 -62L53.7 -31L53.7 31L0 62L-53.7 31L-53.7 -31Z" stroke="#ffffff" fill="none" stroke-width="2"></path></g><g transform="translate(1768 214)"><path d="M0 -44L38.1 -22L38.1 22L0 44L-38.1 22L-38.1 -22Z" stroke="#ffffff" fill="none" stroke-width="2"></path></g><g transform="translate(741 267)"><path d="M0 -42L36.4 -21L36.4 21L0 42L-36.4 21L-36.4 -21Z" stroke="#ffffff" fill="none" stroke-width="2"></path></g><g transform="translate(973 500)"><path d="M0 -49L42.4 -24.5L42.4 24.5L0 49L-42.4 24.5L-42.4 -24.5Z" stroke="#ffffff" fill="none" stroke-width="2"></path></g><g transform="translate(1006 84)"><path d="M0 -64L55.4 -32L55.4 32L0 64L-55.4 32L-55.4 -32Z" stroke="#ffffff" fill="none" stroke-width="2"></path></g><g transform="translate(1076 715)"><path d="M0 -67L58 -33.5L58 33.5L0 67L-58 33.5L-58 -33.5Z" stroke="#ffffff" fill="none" stroke-width="2"></path></g><g transform="translate(827 406)"><path d="M0 -60L52 -30L52 30L0 60L-52 30L-52 -30Z" stroke="#ffffff" fill="none" stroke-width="2"></path></g><g transform="translate(82 315)"><path d="M0 -71L61.5 -35.5L61.5 35.5L0 71L-61.5 35.5L-61.5 -35.5Z" stroke="#ffffff" fill="none" stroke-width="2"></path></g><g transform="translate(1561 328)"><path d="M0 -79L68.4 -39.5L68.4 39.5L0 79L-68.4 39.5L-68.4 -39.5Z" stroke="#ffffff" fill="none" stroke-width="2"></path></g><g transform="translate(752 573)"><path d="M0 -75L65 -37.5L65 37.5L0 75L-65 37.5L-65 -37.5Z" stroke="#ffffff" fill="none" stroke-width="2"></path></g><g transform="translate(1560 531)"><path d="M0 -53L45.9 -26.5L45.9 26.5L0 53L-45.9 26.5L-45.9 -26.5Z" stroke="#ffffff" fill="none" stroke-width="2"></path></g><g transform="translate(1786 592)"><path d="M0 -60L52 -30L52 30L0 60L-52 30L-52 -30Z" stroke="#ffffff" fill="none" stroke-width="2"></path></g><g transform="translate(1258 680)"><path d="M0 -60L52 -30L52 30L0 60L-52 30L-52 -30Z" stroke="#ffffff" fill="none" stroke-width="2"></path></g><g transform="translate(835 89)"><path d="M0 -47L40.7 -23.5L40.7 23.5L0 47L-40.7 23.5L-40.7 -23.5Z" stroke="#ffffff" fill="none" stroke-width="2"></path></g><g transform="translate(477 91)"><path d="M0 -58L50.2 -29L50.2 29L0 58L-50.2 29L-50.2 -29Z" stroke="#ffffff" fill="none" stroke-width="2"></path></g></g></svg>