<svg id="visual" viewBox="0 0 1900 800" width="1900" height="800" xmlns="http://www.w3.org/2000/svg" xmlns:xlink="http://www.w3.org/1999/xlink" version="1.1"><rect width="1900" height="800" fill="#f3f4f6"></rect><g><g transform="translate(103 137)"><path d="M148.2 -44C170.8 21.1 152.9 103.5 103.3 138.8C53.7 174 -27.7 162 -82.2 120.6C-136.7 79.2 -164.4 8.4 -146.2 -50.7C-128.1 -109.9 -64 -157.4 -0.6 -157.2C62.9 -157 125.7 -109.1 148.2 -44Z" stroke="#ffffff" fill="none" stroke-width="20"></path></g><g transform="translate(1720 628)"><path d="M83.7 -24.9C95.5 9.2 83.2 53.4 55.7 72.4C28.1 91.4 -14.7 85.2 -41.9 64C-69.1 42.7 -80.7 6.3 -71.2 -24.7C-61.6 -55.6 -30.8 -81.3 2.6 -82.1C36 -82.9 71.9 -59 83.7 -24.9Z" stroke="#ffffff" fill="none" stroke-width="20"></path></g><g transform="translate(599 791)"><path d="M164.1 -51.6C185.7 13.1 157.6 95.8 100.5 136.9C43.4 178.1 -42.9 177.9 -94.3 138.5C-145.8 99.1 -162.5 20.4 -141 -44.2C-119.5 -108.8 -59.7 -159.3 5.8 -161.2C71.3 -163.1 142.5 -116.3 164.1 -51.6Z" stroke="#ffffff" fill="none" stroke-width="20"></path></g><g transform="translate(886 349)"><path d="M100.1 -27.4C114.9 13.3 102.1 68.1 67.9 92.9C33.6 117.6 -22.1 112.3 -60.1 84.3C-98.1 56.3 -118.5 5.6 -105.5 -32.5C-92.5 -70.6 -46.3 -96 -1.8 -95.4C42.6 -94.8 85.2 -68.2 100.1 -27.4Z" stroke="#ffffff" fill="none" stroke-width="20"></path></g></g></svg>