<svg id="visual" viewBox="0 0 1900 150" width="1900" height="150" xmlns="http://www.w3.org/2000/svg" xmlns:xlink="http://www.w3.org/1999/xlink" version="1.1"><rect x="0" y="0" width="1900" height="150" fill="#f3f4f6"></rect><path d="M0 78L39.7 71.3C79.3 64.7 158.7 51.3 237.8 45.5C317 39.7 396 41.3 475.2 56.8C554.3 72.3 633.7 101.7 712.8 116.5C792 131.3 871 131.7 950.2 126.2C1029.3 120.7 1108.7 109.3 1187.8 87.8C1267 66.3 1346 34.7 1425.2 24.7C1504.3 14.7 1583.7 26.3 1662.8 38.7C1742 51 1821 64 1860.5 70.5L1900 77L1900 0L1860.5 0C1821 0 1742 0 1662.8 0C1583.7 0 1504.3 0 1425.2 0C1346 0 1267 0 1187.8 0C1108.7 0 1029.3 0 950.2 0C871 0 792 0 712.8 0C633.7 0 554.3 0 475.2 0C396 0 317 0 237.8 0C158.7 0 79.3 0 39.7 0L0 0Z" fill="#ffffff" stroke-linecap="round" stroke-linejoin="miter"></path></svg>