<svg id="visual" viewBox="0 0 1900 150" width="1900" height="150" xmlns="http://www.w3.org/2000/svg" xmlns:xlink="http://www.w3.org/1999/xlink" version="1.1"><rect x="0" y="0" width="1900" height="150" fill="#f3f4f6"></rect><path d="M0 144L39.7 123.3C79.3 102.7 158.7 61.3 237.8 38.7C317 16 396 12 475.2 23C554.3 34 633.7 60 712.8 77.8C792 95.7 871 105.3 950.2 113.2C1029.3 121 1108.7 127 1187.8 123.8C1267 120.7 1346 108.3 1425.2 91.5C1504.3 74.7 1583.7 53.3 1662.8 54.3C1742 55.3 1821 78.7 1860.5 90.3L1900 102L1900 151L1860.5 151C1821 151 1742 151 1662.8 151C1583.7 151 1504.3 151 1425.2 151C1346 151 1267 151 1187.8 151C1108.7 151 1029.3 151 950.2 151C871 151 792 151 712.8 151C633.7 151 554.3 151 475.2 151C396 151 317 151 237.8 151C158.7 151 79.3 151 39.7 151L0 151Z" fill="#ffffff" stroke-linecap="round" stroke-linejoin="miter"></path></svg>